<?xml version="1.0" standalone="no"?>
<!DOCTYPE svg PUBLIC "-//W3C//DTD SVG 20010904//EN"
 "http://www.w3.org/TR/2001/REC-SVG-20010904/DTD/svg10.dtd">
<svg version="1.0" xmlns="http://www.w3.org/2000/svg"
 width="2295.000000pt" height="2295.000000pt" viewBox="0 0 2295.000000 2295.000000"
 preserveAspectRatio="xMidYMid meet">
<metadata>
Created by potrace 1.11, written by Peter Selinger 2001-2013
</metadata>
<g transform="translate(0.000000,2295.000000) scale(0.100000,-0.100000)"
fill="#000000" stroke="none">
<path d="M13998 22045 c-2 -2 -25 -5 -53 -8 -123 -12 -288 -76 -353 -137 -64
-61 -81 -134 -47 -201 29 -54 33 -58 253 -213 30 -20 186 -132 348 -247 163
-115 323 -223 357 -240 117 -58 225 -163 340 -332 26 -38 47 -70 47 -72 0 -3
15 -28 34 -57 36 -58 97 -174 95 -184 0 -4 3 -10 8 -13 9 -6 132 -286 137
-311 1 -3 6 -18 13 -35 12 -32 20 -57 21 -65 0 -3 6 -18 12 -35 20 -49 80
-257 86 -295 3 -19 8 -39 11 -43 3 -5 7 -56 8 -113 2 -64 8 -110 15 -119 7 -8
10 -15 7 -15 -3 0 -1 -15 4 -32 6 -18 12 -49 14 -68 3 -19 6 -44 9 -55 3 -19
23 -219 29 -310 l3 -40 -137 -86 c-236 -149 -430 -293 -557 -413 -29 -28 -57
-52 -62 -54 -4 -2 -13 10 -19 25 -6 15 -33 64 -59 108 -163 270 -312 539 -312
562 0 7 -4 13 -8 13 -5 0 -9 6 -10 13 -3 41 -129 337 -175 412 -27 43 -110
168 -122 184 -233 294 -492 513 -843 715 -111 64 -285 151 -392 199 -19 8 -55
24 -80 35 -152 68 -590 207 -750 238 -14 3 -43 10 -65 16 -22 5 -51 12 -65 14
-14 2 -36 6 -50 9 -25 6 -284 49 -350 59 -154 22 -262 26 -369 13 -75 -9 -313
-60 -352 -76 -15 -5 -29 -8 -32 -5 -2 2 -17 0 -32 -6 -25 -10 -180 -54 -227
-65 -9 -2 -99 -27 -200 -55 -101 -29 -190 -53 -198 -55 -8 -2 -58 -14 -110
-28 -93 -26 -251 -62 -400 -91 -71 -15 -98 -19 -180 -31 -19 -3 -100 -8 -180
-11 -235 -11 -360 20 -459 112 -31 29 -63 53 -71 55 -58 12 -154 -73 -189
-165 -29 -79 -41 -185 -27 -251 22 -106 99 -229 188 -300 84 -67 317 -165 393
-165 11 0 70 0 130 0 119 0 254 7 435 24 25 3 77 7 115 11 39 3 81 8 95 10 34
6 103 14 175 20 33 3 85 10 115 15 54 9 116 18 174 26 54 7 331 55 376 65 25
6 54 12 65 13 11 2 29 6 40 9 11 3 31 8 45 11 14 2 77 21 140 41 131 41 193
50 335 49 144 -1 169 -3 275 -26 422 -89 916 -361 1400 -773 78 -66 159 -156
171 -189 7 -20 17 -36 21 -36 4 0 8 -5 8 -10 0 -6 7 -27 16 -48 9 -20 18 -44
19 -52 2 -8 16 -71 33 -140 17 -69 33 -143 36 -164 4 -21 8 -48 11 -60 4 -19
7 -39 20 -121 2 -11 6 -35 9 -52 3 -18 9 -48 12 -65 28 -159 63 -326 88 -425
9 -33 17 -68 19 -79 1 -10 5 -24 9 -29 3 -6 9 -28 13 -50 4 -22 10 -44 13 -50
3 -5 7 -16 8 -25 3 -23 61 -212 84 -272 l20 -53 -42 46 c-24 26 -65 73 -93
105 -92 108 -109 126 -310 329 -352 354 -689 611 -927 706 -141 56 -526 185
-718 240 -225 65 -465 131 -520 144 -8 2 -80 20 -160 40 -80 21 -154 39 -165
41 -11 1 -47 10 -80 18 -88 22 -376 87 -405 91 -14 2 -56 10 -95 18 -86 19
-220 45 -260 52 -16 2 -122 20 -235 39 -113 19 -227 37 -255 40 -27 3 -102 13
-165 21 -63 9 -150 18 -192 21 -42 3 -85 6 -95 8 -42 9 -249 19 -396 20 -167
2 -312 -7 -413 -24 -94 -16 -254 -70 -317 -107 -21 -13 -42 -23 -47 -23 -16 0
-110 -98 -121 -127 -15 -37 -18 -95 -6 -110 5 -7 6 -13 3 -13 -11 0 14 -40 52
-83 88 -98 267 -177 477 -211 36 -6 168 -13 405 -22 259 -10 275 -11 400 -18
63 -4 156 -11 205 -17 50 -5 126 -12 170 -15 44 -3 91 -7 105 -9 38 -6 191
-26 225 -30 17 -2 59 -8 95 -15 36 -6 79 -13 95 -15 17 -2 30 -4 30 -5 0 -1
11 -3 25 -5 14 -2 48 -9 75 -15 28 -6 61 -14 75 -16 27 -5 182 -45 265 -68 95
-26 202 -64 345 -121 19 -8 116 -49 215 -91 287 -122 581 -224 745 -259 73
-15 154 -69 258 -171 56 -56 102 -108 102 -117 0 -8 3 -17 8 -19 17 -7 132
-209 132 -232 0 -8 7 -19 15 -26 8 -6 14 -15 13 -18 -1 -4 3 -18 9 -32 71
-168 91 -220 87 -220 -2 0 4 -12 13 -27 10 -15 17 -30 16 -33 0 -3 5 -20 13
-39 8 -18 14 -36 14 -40 0 -7 91 -234 117 -291 9 -19 16 -37 16 -40 -1 -3 4
-14 10 -25 6 -11 12 -22 12 -25 1 -3 7 -18 13 -33 17 -41 16 -42 -25 -9 -52
39 -171 116 -358 229 -11 7 -27 15 -35 19 -8 4 -17 10 -20 13 -3 3 -16 12 -29
20 -328 184 -487 274 -536 301 -116 63 -341 194 -416 241 -41 26 -104 61 -138
79 -160 80 -575 250 -826 336 -149 52 -309 106 -320 108 -5 1 -68 21 -140 44
-149 47 -338 102 -374 109 -14 2 -28 6 -32 9 -9 5 -355 94 -389 99 -14 2 -54
11 -89 20 -53 13 -109 25 -236 51 -11 2 -33 6 -50 9 -16 3 -52 10 -80 15 -27
6 -63 12 -80 14 -42 6 -101 16 -165 26 -30 5 -86 12 -125 15 -38 4 -81 8 -95
10 -114 18 -206 15 -317 -9 -121 -26 -213 -131 -213 -243 0 -99 56 -206 139
-267 52 -39 73 -48 170 -76 36 -10 100 -30 141 -45 129 -44 460 -112 683 -140
23 -3 80 -12 127 -20 47 -8 105 -17 129 -20 41 -5 369 -59 417 -69 12 -2 39
-7 60 -10 22 -4 47 -9 56 -12 22 -7 57 -14 89 -19 15 -2 82 -18 150 -35 68
-17 133 -33 144 -35 28 -6 254 -80 290 -95 17 -7 35 -14 40 -15 6 -2 40 -17
76 -34 36 -17 69 -31 72 -31 11 0 163 -93 222 -136 91 -65 196 -172 355 -360
14 -16 63 -74 109 -129 47 -55 89 -104 95 -110 6 -5 24 -26 40 -45 29 -36 195
-218 231 -253 l20 -20 -20 8 c-11 4 -108 39 -215 77 -107 39 -204 74 -215 79
-37 15 -448 147 -635 204 -102 31 -207 63 -235 72 -27 8 -54 16 -60 17 -5 1
-37 10 -70 20 -33 10 -69 20 -79 22 -11 2 -40 10 -65 18 -25 8 -55 16 -66 19
-11 3 -72 19 -135 37 -63 17 -122 33 -130 35 -8 2 -69 17 -135 35 -66 17 -131
34 -145 36 -14 3 -50 11 -80 19 -186 47 -275 61 -440 72 -178 10 -388 -30
-509 -98 -240 -136 -214 -330 61 -457 57 -26 214 -79 257 -87 55 -10 206 -46
246 -59 22 -8 78 -26 125 -41 94 -31 355 -132 440 -172 30 -13 73 -33 95 -43
208 -94 645 -320 955 -495 118 -67 139 -79 234 -134 49 -28 90 -51 92 -51 1 0
49 -28 106 -61 57 -34 123 -73 148 -87 25 -14 95 -53 155 -87 61 -34 146 -81
190 -104 l80 -42 -107 3 c-61 2 -104 7 -100 12 3 5 -2 7 -11 3 -9 -3 -19 -2
-22 3 -3 4 -19 6 -35 4 -20 -4 -30 -1 -30 8 0 11 -2 10 -9 0 -10 -17 -21 -17
-31 -2 -6 10 -22 13 -98 19 -7 1 -11 4 -8 9 2 4 -12 7 -32 6 -20 0 -40 3 -43
8 -3 5 -19 11 -35 13 -16 2 -30 4 -31 6 -2 1 -6 2 -10 3 -5 1 -14 5 -20 9 -7
5 -13 5 -13 0 0 -4 -5 -1 -10 7 -9 13 -10 13 -10 0 0 -13 -2 -13 -9 -1 -9 14
-22 19 -63 23 -10 1 -18 6 -18 11 0 4 -8 7 -18 5 -11 -2 -26 3 -34 9 -8 7 -25
14 -39 17 -13 2 -23 8 -22 14 1 6 -5 9 -15 7 -9 -1 -28 3 -42 10 -14 7 -31 10
-37 8 -7 -3 -13 2 -13 10 0 9 -7 14 -17 13 -10 -2 -21 1 -24 6 -5 8 -25 15
-52 17 -5 1 -5 6 -1 13 4 6 3 8 -3 5 -5 -3 -26 2 -46 13 -26 14 -37 16 -40 7
-3 -7 -6 -4 -6 6 -1 10 -5 15 -11 12 -5 -3 -10 -2 -10 4 0 6 -7 7 -17 4 -11
-4 -14 -3 -9 5 6 11 -12 17 -36 13 -5 0 -8 3 -8 9 0 5 -9 10 -20 10 -11 0 -20
5 -20 10 0 6 -7 10 -16 10 -8 0 -22 7 -31 16 -9 8 -22 13 -30 10 -8 -3 -12 -2
-9 2 3 5 -17 17 -45 27 -29 12 -49 26 -49 35 0 12 -2 12 -9 2 -7 -11 -11 -11
-24 2 -8 9 -22 16 -30 16 -8 0 -20 7 -27 15 -7 8 -16 12 -21 9 -5 -3 -9 0 -9
6 0 6 -4 8 -10 5 -5 -3 -10 -1 -10 4 0 6 -9 11 -20 11 -11 0 -20 5 -20 11 0 5
-4 8 -9 4 -5 -3 -15 0 -23 7 -7 7 -20 14 -28 16 -8 2 -18 8 -21 14 -3 5 -9 9
-13 9 -3 -1 -16 -1 -28 -1 -19 0 -20 2 -8 10 11 7 7 10 -17 10 -18 0 -33 5
-33 10 0 6 -6 10 -12 9 -24 -3 -39 1 -34 9 2 4 -10 9 -27 10 -17 2 -34 7 -37
12 -3 5 -20 10 -38 12 -18 1 -32 7 -32 13 0 6 -18 10 -40 9 -21 0 -37 3 -34 8
6 9 -10 10 -148 12 -53 1 -94 -2 -91 -6 4 -8 4 -9 -40 -13 -16 -1 -32 -6 -35
-11 -4 -5 -14 -9 -22 -9 -8 0 -18 -4 -22 -10 -4 -5 -12 -11 -18 -11 -5 -1 -15
-2 -21 -3 -5 0 -7 -5 -4 -11 3 -5 0 -10 -8 -10 -8 0 -20 -7 -27 -15 -7 -8 -16
-12 -21 -9 -5 3 -9 0 -9 -6 0 -5 -13 -24 -30 -41 -16 -17 -32 -40 -35 -50 -4
-11 -10 -17 -15 -14 -5 3 -7 -4 -5 -15 2 -11 0 -20 -5 -20 -5 0 -7 -7 -4 -15
4 -8 1 -15 -6 -15 -7 0 -10 -8 -7 -19 2 -10 1 -25 -4 -32 -4 -8 -3 -19 3 -26
6 -7 7 -13 2 -13 -5 0 -9 -11 -9 -25 0 -14 4 -25 8 -25 5 0 6 -4 2 -10 -3 -5
1 -25 9 -44 8 -19 12 -36 10 -39 -2 -2 5 -12 16 -22 11 -10 20 -24 20 -32 0
-7 4 -13 9 -13 4 0 19 -10 33 -22 52 -47 65 -55 86 -53 12 1 22 -2 22 -7 0 -5
5 -6 10 -3 6 3 10 2 10 -4 0 -6 16 -9 36 -7 19 1 37 -1 40 -6 3 -4 13 -5 22 0
21 9 63 8 88 -3 11 -4 30 -10 44 -12 13 -2 28 -10 32 -16 4 -7 8 -8 8 -4 0 4
9 3 19 -3 14 -7 21 -6 24 3 3 6 6 4 6 -7 1 -13 6 -17 20 -13 12 3 22 -1 25 -9
3 -8 16 -14 29 -14 14 0 30 -7 37 -15 7 -9 19 -14 26 -11 7 3 15 -2 18 -10 3
-9 12 -14 18 -12 7 3 19 -2 27 -9 7 -8 19 -12 26 -9 8 3 16 -2 19 -10 3 -9 10
-13 15 -9 6 3 14 -3 20 -12 5 -10 13 -14 17 -10 4 4 19 -3 32 -15 14 -13 21
-16 17 -9 -5 9 4 6 22 -7 17 -12 33 -19 36 -15 4 3 9 -1 13 -10 3 -9 14 -14
25 -12 11 2 17 0 15 -4 -3 -4 24 -20 59 -36 36 -15 65 -32 65 -38 0 -5 9 -7
20 -4 13 3 20 0 20 -9 0 -8 6 -14 13 -13 25 3 38 -1 32 -11 -4 -6 5 -10 19
-10 14 0 26 -3 26 -7 0 -9 49 -33 67 -33 7 0 13 -4 13 -10 0 -5 9 -10 19 -10
11 0 21 -4 23 -9 2 -5 12 -11 23 -13 11 -1 25 -10 32 -18 7 -8 13 -11 13 -6 0
5 8 1 19 -8 10 -9 25 -16 32 -14 8 2 13 -2 12 -8 -1 -6 5 -11 13 -12 7 -1 21
-3 29 -4 8 -1 15 -5 15 -10 0 -4 9 -8 20 -8 11 0 20 -4 20 -9 0 -5 7 -12 16
-15 10 -4 13 -2 8 7 -4 6 3 2 15 -10 12 -12 28 -20 36 -17 10 4 15 0 15 -12 0
-16 2 -17 10 -4 5 8 10 10 10 4 0 -6 18 -17 40 -24 22 -7 40 -17 40 -21 0 -4
11 -6 25 -4 16 1 25 -3 25 -11 0 -8 11 -14 25 -14 14 0 25 -4 25 -10 0 -5 11
-10 25 -10 14 0 25 -4 25 -10 0 -5 14 -10 30 -10 19 0 30 -5 30 -14 0 -9 7
-12 19 -9 10 3 22 0 25 -6 4 -6 16 -11 27 -11 11 0 31 -7 44 -16 14 -9 31 -14
39 -11 8 3 17 0 19 -7 3 -8 17 -12 32 -11 15 2 28 -2 31 -10 3 -7 16 -12 30
-10 13 1 24 -2 24 -6 0 -5 3 -8 8 -8 24 4 42 -2 36 -12 -5 -8 -2 -9 11 -1 38
21 41 -4 18 -141 -40 -239 -48 -350 -48 -632 0 -240 7 -364 31 -525 71 -489
244 -875 557 -1245 66 -77 82 -95 312 -340 224 -237 315 -355 387 -500 86
-172 109 -281 114 -540 6 -376 15 -720 19 -770 9 -124 18 -201 41 -340 23
-135 22 -133 60 -271 19 -71 36 -136 38 -144 7 -25 76 -234 83 -250 3 -8 7
-17 8 -20 9 -33 111 -314 130 -355 7 -16 27 -66 45 -110 17 -44 37 -93 44
-110 8 -16 26 -59 41 -95 16 -36 48 -107 72 -158 23 -52 43 -96 43 -99 0 -2
49 -104 110 -226 162 -329 268 -525 545 -1010 5 -9 55 -92 110 -183 55 -91
105 -173 110 -182 6 -9 34 -56 63 -104 45 -74 103 -190 157 -313 18 -41 61
-187 76 -260 20 -92 17 -326 -4 -405 -73 -272 -283 -432 -586 -445 -158 -7
-331 88 -478 263 -105 126 -176 298 -190 466 -4 59 -14 96 -35 138 -15 31 -28
59 -28 61 0 3 -29 65 -64 138 -35 74 -90 190 -121 259 -32 69 -82 177 -112
240 -30 63 -83 176 -118 250 -35 74 -82 176 -105 225 -23 50 -55 117 -70 150
-15 33 -58 122 -94 199 -36 76 -66 140 -66 141 0 2 -31 69 -70 150 -38 81 -70
148 -70 150 0 1 -31 67 -69 146 -38 79 -80 169 -94 199 -37 82 -91 197 -172
370 -98 208 -163 348 -210 448 -37 80 -39 82 -59 67 -284 -210 -540 -296 -775
-260 -144 21 -294 118 -384 248 -45 65 -97 166 -97 189 0 8 -4 18 -9 23 -20
22 -53 193 -54 285 -2 145 14 212 75 320 64 114 171 199 353 283 92 42 225 90
285 103 14 3 35 7 47 10 13 2 41 5 63 7 22 1 40 7 40 14 0 6 -29 72 -65 147
-36 75 -65 137 -65 140 0 2 -36 79 -80 170 -44 92 -80 169 -80 170 0 2 -26 59
-59 127 -32 68 -79 168 -105 223 l-46 98 71 77 c118 127 228 306 259 422 20
74 23 91 22 164 0 122 -56 247 -139 313 -65 51 -190 104 -279 118 -20 3 -46 8
-58 11 -11 2 -99 7 -194 10 l-172 6 14 -39 c14 -39 295 -721 321 -779 7 -16
36 -85 63 -152 l50 -123 -46 -38 c-26 -22 -81 -62 -122 -89 -519 -347 -1004
-229 -1170 285 -114 352 -39 618 220 787 36 23 88 53 115 65 28 12 73 32 100
45 82 37 214 76 300 88 44 6 81 12 83 12 4 3 -25 68 -97 218 -34 71 -61 130
-61 132 0 1 -25 56 -56 121 -53 111 -149 317 -216 463 l-29 63 -33 -46 c-30
-43 -147 -146 -166 -146 -5 0 -15 -6 -22 -13 -19 -19 -164 -82 -233 -102 -98
-28 -114 -30 -250 -29 -118 1 -136 3 -200 29 -175 71 -290 193 -369 390 -15
39 -30 77 -32 85 -31 122 -37 158 -37 245 -1 206 87 363 288 512 140 104 391
199 541 205 40 1 41 9 13 69 -43 87 -129 271 -129 274 0 1 -34 73 -75 159 -41
86 -75 158 -75 160 0 4 -77 167 -160 341 -109 228 -169 355 -175 374 -3 12
-11 21 -16 21 -5 0 -9 6 -9 14 0 13 -346 710 -413 831 -18 33 -55 101 -81 150
-27 50 -52 91 -57 93 -5 2 -9 8 -9 13 0 22 -140 214 -220 303 -211 234 -438
407 -705 536 -180 87 -313 128 -545 169 -57 10 -320 8 -380 -3 -81 -15 -106
-19 -115 -22 -5 -2 -20 -5 -32 -8 -12 -2 -31 -10 -42 -16 -12 -6 -21 -9 -21
-6 0 2 -27 -6 -60 -19 -187 -73 -321 -164 -490 -334 -160 -161 -247 -279 -334
-456 -88 -178 -162 -406 -181 -556 -3 -23 -7 -44 -9 -48 -2 -3 -7 -24 -10 -46
-4 -22 -9 -51 -11 -65 -2 -14 -18 -108 -35 -210 -36 -222 -32 -201 -64 -325
-69 -273 -177 -498 -321 -672 -68 -82 -167 -182 -235 -238 -36 -29 -85 -72
-110 -95 -132 -123 -302 -230 -475 -299 -212 -85 -336 -112 -538 -115 -50 -1
-57 -6 -97 -66 -8 -12 -23 -33 -33 -45 -9 -13 -17 -26 -17 -29 0 -3 -7 -14
-15 -23 -8 -10 -49 -67 -90 -126 -56 -79 -93 -120 -138 -154 -129 -94 -235
-131 -378 -131 -176 0 -323 67 -484 219 l-71 68 -20 -26 c-10 -15 -24 -31 -29
-37 -6 -6 -23 -28 -39 -48 l-28 -38 57 -70 c62 -76 158 -169 238 -230 29 -22
57 -45 64 -50 81 -66 303 -185 438 -234 80 -29 241 -72 300 -81 23 -3 50 -7
60 -9 48 -9 197 -19 280 -18 92 1 266 12 275 17 3 2 28 6 55 9 28 4 88 16 135
26 47 11 141 31 210 44 312 60 479 123 717 272 55 35 104 64 108 64 3 0 23 12
43 27 222 166 504 439 599 580 199 295 386 709 529 1173 76 244 109 334 148
398 88 143 166 145 254 7 22 -33 53 -94 70 -135 17 -41 60 -143 95 -226 91
-211 333 -821 486 -1224 29 -74 56 -144 61 -155 9 -20 129 -331 277 -720 114
-300 140 -367 153 -400 7 -16 14 -34 15 -40 2 -5 46 -125 100 -265 132 -346
145 -382 155 -405 5 -11 29 -76 55 -145 25 -69 50 -134 54 -145 5 -11 28 -72
51 -135 23 -63 53 -142 65 -175 53 -137 230 -606 255 -675 15 -41 47 -124 70
-185 23 -60 102 -271 176 -467 74 -197 138 -368 144 -380 5 -13 59 -157 120
-320 60 -164 115 -308 120 -320 5 -13 59 -157 120 -322 62 -164 116 -308 120
-320 5 -11 51 -136 104 -276 52 -140 138 -370 190 -510 53 -140 99 -262 101
-270 2 -8 13 -37 23 -65 11 -27 43 -113 71 -190 29 -77 56 -150 61 -163 6 -13
25 -65 44 -115 19 -51 87 -234 151 -407 64 -173 129 -349 145 -390 82 -212
240 -646 264 -725 49 -160 149 -442 191 -540 7 -16 27 -64 43 -105 82 -202
299 -643 392 -796 22 -37 40 -68 40 -71 0 -2 15 -28 33 -56 19 -29 68 -106
111 -172 42 -66 92 -142 112 -169 156 -220 284 -379 424 -531 153 -165 325
-326 475 -444 109 -87 99 -79 160 -121 28 -19 52 -37 55 -40 5 -6 86 -57 200
-127 61 -38 149 -86 160 -88 3 -1 38 -18 78 -38 183 -94 554 -221 735 -252 12
-2 63 -11 113 -19 188 -33 302 -41 549 -41 270 0 384 10 645 55 30 5 71 12 90
14 40 5 209 39 322 65 56 13 251 69 282 81 11 4 59 23 106 41 222 86 477 248
741 471 456 384 655 585 831 839 138 198 220 351 323 604 55 134 133 425 164
610 18 108 20 120 25 160 3 22 7 58 10 80 32 258 41 628 20 775 -26 171 -108
455 -177 609 -11 25 -21 51 -22 56 -3 9 -56 131 -107 245 -30 67 -285 574
-372 740 -77 146 -340 671 -341 680 -1 3 -16 36 -33 74 -18 38 -32 70 -32 72
0 4 -12 32 -51 119 -66 149 -147 420 -177 595 -8 48 -7 279 2 370 11 116 26
238 31 260 2 8 7 35 10 60 3 25 8 56 10 70 3 14 7 34 9 45 36 184 105 372 180
490 47 73 91 115 185 177 139 91 288 153 716 299 290 99 413 148 610 244 593
289 964 723 1185 1384 49 147 63 221 90 491 34 335 34 836 0 1105 -5 44 -12
103 -16 130 -30 263 -125 634 -233 909 l-47 123 55 12 c31 6 70 14 86 17 17 3
56 11 88 19 32 8 73 17 90 20 18 3 57 12 87 20 30 8 66 16 80 19 44 8 481 116
595 148 61 16 117 31 125 33 24 5 204 53 220 59 8 3 26 8 40 10 14 3 43 10 65
15 93 22 323 32 410 17 17 -3 75 -12 130 -21 55 -9 118 -21 140 -26 22 -6 51
-13 64 -16 91 -16 449 -137 611 -206 14 -6 27 -11 30 -12 3 -1 19 -7 35 -14
17 -6 42 -16 57 -22 88 -35 222 4 300 89 118 128 114 288 -11 412 -58 58 -208
150 -401 246 -106 52 -524 234 -539 234 -4 0 -22 7 -39 16 -83 41 -277 77
-492 91 -132 8 -649 8 -835 -1 -128 -6 -172 -9 -290 -21 -22 -2 -80 -7 -130
-10 -49 -3 -117 -10 -150 -15 -33 -5 -89 -12 -125 -15 -36 -4 -94 -10 -130
-15 -35 -5 -66 -8 -67 -6 -2 2 13 16 34 32 165 125 385 334 492 468 34 43 86
119 116 169 30 51 69 107 86 125 30 34 152 113 219 144 121 56 341 127 442
142 21 3 58 10 83 16 158 35 500 52 615 30 30 -6 69 -13 85 -16 50 -8 116 -45
134 -74 l16 -28 64 20 c113 35 201 108 215 178 1 3 4 10 7 15 7 12 4 120 -4
153 -26 102 -166 262 -275 313 -65 31 -217 75 -287 83 -62 8 -118 16 -140 21
-97 21 -598 21 -727 0 -13 -2 -50 -6 -83 -10 -192 -20 -485 -86 -522 -117 -7
-6 -13 -8 -13 -4 0 12 -136 -63 -176 -97 -22 -20 -55 -63 -73 -96 -67 -127
-243 -318 -436 -474 -85 -69 -153 -122 -175 -135 -14 -9 -27 -19 -30 -22 -4
-5 -71 -48 -195 -126 -100 -63 -271 -145 -395 -189 -159 -57 -208 -66 -369
-71 -123 -4 -124 -3 -182 28 -33 17 -59 34 -59 38 0 20 188 395 250 500 5 8
44 76 88 150 66 112 162 262 195 305 4 6 31 42 59 80 144 194 306 344 413 384
28 10 79 19 113 20 132 4 329 72 457 156 248 165 438 432 606 852 27 67 50
130 52 140 1 10 5 23 8 28 4 6 10 24 14 40 12 45 12 45 15 48 2 3 8 25 15 62
3 17 10 41 15 55 19 50 68 286 85 405 3 23 7 52 10 65 9 45 19 194 17 249 -1
42 5 69 28 118 73 154 63 291 -31 397 -77 88 -219 137 -336 115 -26 -5 -58
-11 -71 -14 -41 -7 -155 -75 -200 -118 -24 -23 -64 -70 -89 -105 -40 -56 -46
-71 -48 -120 -7 -171 -220 -621 -441 -929 -100 -139 -172 -223 -304 -353 -133
-131 -253 -223 -350 -267 -263 -120 -454 -247 -647 -428 -103 -96 -307 -333
-303 -351 1 -4 -2 -10 -8 -13 -5 -3 -14 -15 -19 -26 -10 -17 -13 -12 -26 35
-15 53 -109 445 -112 465 -1 6 -3 12 -4 15 -4 8 -9 32 -16 75 -4 22 -10 44
-15 48 -26 28 9 51 264 176 295 146 747 351 771 351 3 0 43 18 88 39 240 114
458 351 556 606 13 33 27 69 31 80 10 22 18 51 26 87 11 50 14 64 20 88 31
132 36 475 9 610 -13 65 -17 86 -20 105 -1 11 -3 20 -4 20 -1 0 -4 15 -7 34
-2 19 -9 39 -14 46 -5 7 -8 14 -5 17 6 6 -25 102 -68 213 -17 44 -32 82 -32
85 -4 22 -100 194 -154 275 -71 107 -214 260 -295 315 -74 50 -260 140 -371
179 -81 29 -124 36 -225 36 -75 0 -91 -3 -132 -27 -46 -28 -84 -75 -95 -120
-9 -39 -10 -168 -1 -174 4 -3 8 -13 8 -22 1 -29 36 -65 66 -68 62 -5 96 -23
163 -87 125 -120 247 -357 324 -627 23 -80 28 -106 44 -220 9 -60 9 -296 0
-340 -4 -19 -9 -46 -12 -60 -3 -14 -8 -36 -11 -49 -3 -13 -23 -62 -45 -109
-82 -171 -278 -316 -445 -327 -47 -4 -208 -50 -279 -80 -16 -7 -55 -23 -85
-35 -30 -12 -80 -33 -110 -47 -98 -45 -100 -45 -101 -20 -1 12 0 36 1 52 6 61
-3 217 -15 275 -3 14 -10 54 -15 90 -16 99 -58 285 -86 380 -13 47 -26 92 -28
101 -20 81 -116 318 -189 462 -84 168 -207 376 -229 385 -5 2 -8 8 -8 13 0 7
-28 48 -83 119 -242 315 -551 597 -859 785 -9 5 -50 27 -90 49 -40 21 -77 42
-83 45 -5 4 -30 14 -55 21 -25 8 -61 24 -80 36 -19 13 -53 26 -75 29 -42 8
-202 15 -207 10z m1408 -4377 c-3 -62 -8 -144 -11 -183 -3 -38 -7 -104 -10
-145 -2 -41 -7 -93 -10 -115 -3 -22 -7 -67 -10 -100 -2 -33 -6 -71 -9 -85 -2
-14 -8 -47 -11 -75 -12 -93 -15 -110 -20 -135 -4 -14 -8 -36 -11 -50 -4 -23
-16 -77 -19 -90 -1 -3 -5 -22 -9 -42 -5 -21 -13 -38 -20 -38 -9 0 -48 167 -61
260 -2 14 -4 25 -5 25 -1 0 -3 7 -5 15 -5 22 -13 58 -25 110 -6 25 -38 124
-70 220 -33 96 -61 180 -63 185 -1 6 -6 13 -11 17 -19 13 343 338 377 338 5 0
6 -47 3 -112z m-1061 -2002 c157 -22 258 -44 356 -77 72 -24 91 -27 120 -18
128 39 920 7 1009 -41 16 -8 28 -4 64 23 149 114 654 129 1131 32 245 -50 478
-141 578 -226 52 -45 117 -135 146 -201 84 -197 159 -659 161 -989 0 -235 -38
-480 -93 -582 -56 -106 -172 -186 -323 -224 -104 -25 -343 -23 -447 5 -206 56
-427 200 -634 416 -330 342 -571 824 -605 1211 -10 120 -10 120 -46 153 -134
122 -663 118 -806 -7 -32 -28 -35 -53 -16 -133 26 -111 33 -228 20 -353 -31
-303 -145 -641 -294 -869 -44 -68 -68 -91 -173 -170 -305 -230 -572 -346 -976
-425 -341 -67 -693 -28 -967 106 -99 49 -126 68 -195 138 -97 97 -160 208
-257 455 -80 205 -120 351 -123 454 -2 79 -5 92 -25 108 -24 19 -90 24 -118 9
-9 -5 -170 -163 -357 -350 -187 -188 -343 -341 -347 -341 -17 0 -6 26 43 109
164 274 542 767 710 925 72 69 73 70 81 134 45 373 612 652 1498 737 194 19
729 13 885 -9z m2323 -3080 c4 -187 67 -429 137 -520 40 -52 117 -86 198 -86
85 0 120 15 183 76 119 118 244 377 244 508 0 31 2 56 5 56 21 0 320 -33 405
-45 145 -20 207 -32 263 -52 48 -17 49 -18 43 -53 -4 -24 -3 -30 4 -20 14 22
12 60 -4 66 -23 9 -15 39 11 40 12 1 22 -1 21 -5 -1 -3 2 -14 6 -23 24 -54
-78 -278 -236 -513 -257 -385 -572 -715 -818 -859 -72 -42 -181 -86 -214 -86
-14 0 -74 -18 -132 -40 -323 -123 -779 -216 -1225 -251 -229 -17 -741 -7 -929
19 -546 75 -975 238 -1322 500 -49 36 -89 69 -89 74 -1 4 -2 13 -3 20 0 6 -11
12 -24 13 -31 2 -174 144 -167 165 4 8 3 11 -1 8 -3 -4 -13 -1 -20 5 -30 25
-144 176 -194 256 -57 92 -163 302 -156 309 8 7 26 -9 21 -19 -4 -5 -1 -9 4
-9 6 0 11 -7 11 -16 0 -8 4 -13 9 -9 6 3 -3 33 -20 68 -16 34 -29 76 -29 93 0
28 5 34 48 52 49 21 164 52 267 72 33 6 67 13 76 16 11 3 19 -9 28 -47 17 -67
115 -213 187 -278 86 -79 144 -105 230 -103 130 2 212 58 256 175 26 68 47
217 42 300 l-3 68 36 -3 c35 -3 36 -4 53 -74 59 -233 187 -433 296 -463 101
-28 214 -2 279 65 71 73 165 299 195 472 13 69 14 72 42 72 25 0 28 -4 28 -32
0 -40 35 -166 66 -238 89 -205 208 -360 316 -414 78 -39 175 -37 254 5 33 17
71 42 86 56 72 69 146 280 173 501 6 48 10 55 41 69 19 9 35 15 37 12 2 -2 13
-51 26 -109 30 -138 105 -320 165 -405 68 -94 123 -120 256 -120 84 0 100 3
136 25 139 84 297 415 312 653 l5 77 42 0 42 0 1 -74z m-4013 -416 c3 -5 1
-10 -4 -10 -6 0 -11 5 -11 10 0 6 2 10 4 10 3 0 8 -4 11 -10z m1476 -3125 c10
-3 27 -8 39 -10 12 -2 55 -21 95 -40 122 -60 211 -165 274 -322 36 -88 42
-119 47 -230 4 -109 -17 -207 -66 -301 -40 -76 -197 -234 -276 -279 -184 -102
-467 -45 -680 138 -78 68 -136 168 -171 299 -21 79 -23 266 -5 325 37 114 80
187 151 253 47 45 152 112 175 112 6 0 16 4 22 9 18 17 83 35 174 50 47 8 192
5 221 -4z m880 -2005 c105 -24 195 -78 277 -165 72 -77 136 -184 147 -246 3
-13 8 -44 13 -69 24 -131 -9 -294 -89 -431 -64 -110 -117 -161 -222 -212 -121
-60 -220 -81 -345 -75 -221 12 -375 112 -473 307 -68 138 -96 290 -74 411 2
14 6 36 9 50 9 55 50 143 90 198 62 83 147 147 263 196 60 25 83 31 158 42 22
4 41 7 43 9 7 6 157 -4 203 -15z"/>
<path d="M13916 15311 c-3 -5 12 -20 33 -35 86 -60 205 -240 291 -440 99 -232
180 -518 183 -651 2 -71 3 -73 21 -57 106 96 217 610 186 864 -22 180 -63 227
-241 272 -178 45 -458 73 -473 47z"/>
<path d="M16856 15151 c-3 -5 12 -20 33 -35 86 -60 205 -240 291 -440 99 -232
180 -518 183 -651 2 -71 3 -73 21 -57 106 96 217 610 186 864 -22 180 -63 227
-241 272 -178 45 -458 73 -473 47z"/>
<path d="M18080 12358 c-19 -24 -26 -37 -17 -29 19 15 61 71 54 71 -2 0 -19
-19 -37 -42z"/>
<path d="M17855 12122 c-104 -102 -149 -150 -100 -105 91 83 304 293 295 293
-3 -1 -90 -85 -195 -188z"/>
<path d="M12730 12056 c0 -2 8 -10 18 -17 15 -13 16 -12 3 4 -13 16 -21 21
-21 13z"/>
<path d="M12835 11940 c44 -44 82 -80 85 -80 2 0 -31 36 -75 80 -44 44 -82 80
-85 80 -2 0 31 -36 75 -80z"/>
<path d="M17619 11903 l-34 -38 38 34 c34 33 42 41 34 41 -2 0 -19 -17 -38
-37z"/>
<path d="M17544 11838 l-29 -33 33 29 c17 17 32 31 32 33 0 8 -8 1 -36 -29z"/>
<path d="M12943 11843 c18 -20 107 -87 107 -80 0 2 -28 25 -62 52 -35 26 -55
39 -45 28z"/>
<path d="M17479 11783 l-24 -28 28 24 c25 23 32 31 24 31 -2 0 -14 -12 -28
-27z"/>
<path d="M13082 11738 c30 -26 88 -62 88 -55 0 2 -26 21 -57 41 -32 20 -46 27
-31 14z"/>
<path d="M17419 11733 l-24 -28 28 24 c25 23 32 31 24 31 -2 0 -14 -12 -28
-27z"/>
<path d="M17364 11688 l-19 -23 23 19 c21 18 27 26 19 26 -2 0 -12 -10 -23
-22z"/>
<path d="M17290 11629 l-45 -41 42 32 c37 27 61 51 51 50 -2 0 -23 -19 -48
-41z"/>
<path d="M13230 11646 c0 -3 9 -10 20 -16 11 -6 20 -8 20 -6 0 3 -9 10 -20 16
-11 6 -20 8 -20 6z"/>
<path d="M13280 11616 c0 -3 14 -12 30 -21 17 -9 30 -13 30 -11 0 3 -13 12
-30 21 -16 9 -30 13 -30 11z"/>
<path d="M17178 11544 c-32 -25 -58 -50 -58 -56 0 -6 -3 -9 -6 -5 -3 3 -43
-19 -88 -50 -124 -86 -131 -98 -12 -21 32 21 62 35 67 32 5 -3 9 0 9 6 0 6 5
8 12 4 7 -4 8 -3 4 4 -7 11 6 17 27 13 5 -1 6 3 2 9 -4 6 6 21 22 34 78 67 88
75 83 75 -3 0 -31 -20 -62 -45z"/>
<path d="M13424 11536 c11 -9 24 -16 30 -16 12 0 7 5 -24 19 -24 11 -24 11 -6
-3z"/>
<path d="M13580 11460 c8 -5 20 -10 25 -10 6 0 3 5 -5 10 -8 5 -19 10 -25 10
-5 0 -3 -5 5 -10z"/>
<path d="M13670 11420 c8 -5 20 -10 25 -10 6 0 3 5 -5 10 -8 5 -19 10 -25 10
-5 0 -3 -5 5 -10z"/>
<path d="M13720 11400 c8 -5 20 -10 25 -10 6 0 3 5 -5 10 -8 5 -19 10 -25 10
-5 0 -3 -5 5 -10z"/>
<path d="M13770 11380 c8 -5 20 -10 25 -10 6 0 3 5 -5 10 -8 5 -19 10 -25 10
-5 0 -3 -5 5 -10z"/>
<path d="M13820 11360 c8 -5 20 -10 25 -10 6 0 3 5 -5 10 -8 5 -19 10 -25 10
-5 0 -3 -5 5 -10z"/>
<path d="M13900 11332 c8 -5 26 -13 40 -16 17 -5 20 -4 10 2 -8 5 -26 13 -40
16 -17 5 -20 4 -10 -2z"/>
<path d="M16790 11300 c-8 -5 -10 -10 -5 -10 6 0 17 5 25 10 8 5 11 10 5 10
-5 0 -17 -5 -25 -10z"/>
<path d="M14090 11265 c19 -7 42 -13 50 -13 8 0 -1 6 -20 13 -19 7 -42 13 -50
13 -8 0 1 -6 20 -13z"/>
<path d="M16720 11270 c-8 -5 -10 -10 -5 -10 6 0 17 5 25 10 8 5 11 10 5 10
-5 0 -17 -5 -25 -10z"/>
<path d="M16670 11250 c-8 -5 -10 -10 -5 -10 6 0 17 5 25 10 8 5 11 10 5 10
-5 0 -17 -5 -25 -10z"/>
<path d="M14198 11233 c7 -3 16 -2 19 1 4 3 -2 6 -13 5 -11 0 -14 -3 -6 -6z"/>
<path d="M16585 11220 c-13 -6 -15 -9 -5 -9 8 0 22 4 30 9 18 12 2 12 -25 0z"/>
<path d="M14268 11213 c7 -3 16 -2 19 1 4 3 -2 6 -13 5 -11 0 -14 -3 -6 -6z"/>
<path d="M14338 11193 c7 -3 16 -2 19 1 4 3 -2 6 -13 5 -11 0 -14 -3 -6 -6z"/>
<path d="M14378 11183 c7 -3 16 -2 19 1 4 3 -2 6 -13 5 -11 0 -14 -3 -6 -6z"/>
<path d="M14418 11173 c6 -2 18 -2 25 0 6 3 1 5 -13 5 -14 0 -19 -2 -12 -5z"/>
<path d="M14468 11163 c7 -3 16 -2 19 1 4 3 -2 6 -13 5 -11 0 -14 -3 -6 -6z"/>
<path d="M16418 11163 c7 -3 16 -2 19 1 4 3 -2 6 -13 5 -11 0 -14 -3 -6 -6z"/>
<path d="M14508 11153 c7 -3 16 -2 19 1 4 3 -2 6 -13 5 -11 0 -14 -3 -6 -6z"/>
<path d="M16378 11153 c7 -3 16 -2 19 1 4 3 -2 6 -13 5 -11 0 -14 -3 -6 -6z"/>
<path d="M14558 11143 c7 -3 16 -2 19 1 4 3 -2 6 -13 5 -11 0 -14 -3 -6 -6z"/>
<path d="M16338 11143 c7 -3 16 -2 19 1 4 3 -2 6 -13 5 -11 0 -14 -3 -6 -6z"/>
<path d="M14608 11133 c7 -3 16 -2 19 1 4 3 -2 6 -13 5 -11 0 -14 -3 -6 -6z"/>
<path d="M16298 11133 c7 -3 16 -2 19 1 4 3 -2 6 -13 5 -11 0 -14 -3 -6 -6z"/>
<path d="M14658 11123 c7 -3 16 -2 19 1 4 3 -2 6 -13 5 -11 0 -14 -3 -6 -6z"/>
<path d="M16258 11123 c7 -3 16 -2 19 1 4 3 -2 6 -13 5 -11 0 -14 -3 -6 -6z"/>
<path d="M14708 11113 c6 -2 18 -2 25 0 6 3 1 5 -13 5 -14 0 -19 -2 -12 -5z"/>
<path d="M16208 11113 c7 -3 16 -2 19 1 4 3 -2 6 -13 5 -11 0 -14 -3 -6 -6z"/>
<path d="M14768 11103 c6 -2 18 -2 25 0 6 3 1 5 -13 5 -14 0 -19 -2 -12 -5z"/>
<path d="M16148 11103 c6 -2 18 -2 25 0 6 3 1 5 -13 5 -14 0 -19 -2 -12 -5z"/>
<path d="M14833 11093 c9 -2 23 -2 30 0 6 3 -1 5 -18 5 -16 0 -22 -2 -12 -5z"/>
<path d="M16098 11093 c6 -2 18 -2 25 0 6 3 1 5 -13 5 -14 0 -19 -2 -12 -5z"/>
<path d="M14903 11083 c9 -2 23 -2 30 0 6 3 -1 5 -18 5 -16 0 -22 -2 -12 -5z"/>
<path d="M16033 11083 c9 -2 23 -2 30 0 6 3 -1 5 -18 5 -16 0 -22 -2 -12 -5z"/>
<path d="M14973 11073 c9 -2 25 -2 35 0 9 3 1 5 -18 5 -19 0 -27 -2 -17 -5z"/>
<path d="M15963 11073 c9 -2 23 -2 30 0 6 3 -1 5 -18 5 -16 0 -22 -2 -12 -5z"/>
<path d="M15068 11063 c12 -2 30 -2 40 0 9 3 -1 5 -23 4 -22 0 -30 -2 -17 -4z"/>
<path d="M15868 11063 c12 -2 30 -2 40 0 9 3 -1 5 -23 4 -22 0 -30 -2 -17 -4z"/>
<path d="M15183 11053 c15 -2 39 -2 55 0 15 2 2 4 -28 4 -30 0 -43 -2 -27 -4z"/>
<path d="M15743 11053 c15 -2 39 -2 55 0 15 2 2 4 -28 4 -30 0 -43 -2 -27 -4z"/>
<path d="M15413 11043 c48 -2 125 -2 170 0 45 1 6 3 -88 3 -93 0 -130 -2 -82
-3z"/>
<path d="M8580 13848 c0 -5 41 -92 165 -353 67 -141 298 -632 333 -708 l36
-78 49 53 c242 259 337 508 271 710 -18 55 -79 153 -120 192 -77 73 -201 132
-338 162 -66 15 -396 33 -396 22z"/>
<path d="M10608 9380 l-27 -5 260 -520 c143 -286 265 -524 270 -530 6 -6 20 3
38 25 16 19 39 46 51 60 12 14 44 57 70 95 139 205 182 379 135 542 -52 183
-191 279 -462 323 -78 13 -291 19 -335 10z"/>
</g>
</svg>
